{"title":"Force (2011) Hindi 1CD CAMRip XviD TMK@Mastitorrents","uid":6712556,"size":449768317,"categoryP":"video","categoryS":"movies","magnet":"?xt=urn:btih:160078319f0309216a23b0d7dd9ef9e877cc363d&amp;dn=Force+%282011%29+Hindi+1CD+CAMRip+XviD+TMK%40Mastitorrents&amp;tr=udp%3A%2F%2Ftracker.openbittorrent.com%3A80&amp;tr=udp%3A%2F%2Fopen.demonii.com%3A1337&amp;tr=udp%3A%2F%2Ftracker.coppersurfer.tk%3A6969&amp;tr=udp%3A%2F%2Fexodus.desync.com%3A6969","seeders":0,"leechers":0,"uploader":"HDvideos","files":-1,"time":1317413474,"description":"mastitorrents.com\n &lt;a href=&quot;\nhttp://mastitorrents.com/forums/index.php&quot; rel=&quot;nofollow&quot; target=&quot;_NEW&quot;&gt;\nhttp://mastitorrents.com/forums/index.php&lt;/a&gt;\n\nForce (2011) Hindi 1CD CAMRip XviD TMK@Mastitorrents\n &lt;a href=&quot;\nhttp://thepiratebay.se/user/HDvideos/0/7&quot; rel=&quot;nofollow&quot; target=&quot;_NEW&quot;&gt;\nhttp://thepiratebay.se/user/HDvideos/0/7&lt;/a&gt;\n\nFormat                           : AVI\nFormat/Info                      : Audio Video Interleave\nFile size                        : 399 MiB\nDuration                         : 2h 8mn\nOverall bit rate                 : 435 Kbps\nWriting application              : Lavf52.61.0\nWriting library                  : VirtualDub build 32842/release\n\nVideo\nID                               : 0\nFormat                           : MPEG-4 Visual\nFormat profile                   : Advanced Simple@L5\nFormat settings, BVOP            : 1\nFormat settings, QPel            : No\nFormat settings, GMC             : No warppoints\nFormat settings, Matrix          : Custom\nCodec ID                         : XVID\nCodec ID/Hint                    : XviD\nDuration                         : 2h 8mn\nBit rate                         : 294 Kbps\nWidth                            : 624 pixels\nHeight                           : 272 pixels\nDisplay aspect ratio             : 2.25:1\nFrame rate                       : 29.970 fps\nColor space                      : YUV\nChroma subsampling               : 4:2:0\nBit depth                        : 8 bits\nScan type                        : Progressive\nCompression mode                 : Lossy\nBits/(Pixel*Frame)               : 0.058\nStream size                      : 270 MiB (68%)\nWriting library                  : XviD 64\n\nAudio\nID                               : 1\nFormat                           : MPEG Audio\nFormat version                   : Version 1\nFormat profile                   : Layer 3\nMode                             : Joint stereo\nMode extension                   : MS Stereo\nCodec ID                         : 55\nCodec ID/Hint                    : MP3\nDuration                         : 2h 8mn\nBit rate mode                    : Constant\nBit rate                         : 128 Kbps\nChannel(s)                       : 2 channels\nSampling rate                    : 44.1 KHz\nCompression mode                 : Lossy\nStream size                      : 117 MiB (29%)\nAlignment                        : Aligned on interleaves\nInterleave, duration             : 26 ms (0.78 video frame)\nInterleave, preload duration     : 522 ms\n\nCredits: TMK\n\nRecommended Player:VLC Player\n\nfacebook. com/MastiTorrents\n\nfacebook. com/MastiTorrentsReleasers","torrent":{"xt":"urn:btih:160078319f0309216a23b0d7dd9ef9e877cc363d","amp;dn":"Force+%282011%29+Hindi+1CD+CAMRip+XviD+TMK%40Mastitorrents","amp;tr":["udp%3A%2F%2Ftracker.openbittorrent.com%3A80","udp%3A%2F%2Fopen.demonii.com%3A1337","udp%3A%2F%2Ftracker.coppersurfer.tk%3A6969","udp%3A%2F%2Fexodus.desync.com%3A6969"],"infoHash":"160078319f0309216a23b0d7dd9ef9e877cc363d","infoHashBuffer":{"type":"Buffer","data":[22,0,120,49,159,3,9,33,106,35,176,215,221,158,249,232,119,204,54,61]},"announce":[],"urlList":[]}}